<svg width="305" height="70" viewBox="0 0 305 70" fill="none" xmlns="http://www.w3.org/2000/svg">
<rect width="305" height="70" fill="white"/>
<path fill-rule="evenodd" clip-rule="evenodd" d="M39.5919 6.48148H0L0.000307083 6.48174V41.1454L16.6706 55.7407V21.0768H56.2621L39.5919 6.48148Z" fill="#FF2D20"/>
<path fill-rule="evenodd" clip-rule="evenodd" d="M16.6703 55.7408H56.2622L56.2619 55.7405V21.0768L39.5916 6.48148V41.1454H39.5917H9.15527e-05L16.6703 55.7408Z" fill="url(#paint0_linear)"/>
<path d="M78.2422 38.1602H86.3281V40H75.9805V22.9375H78.2422V38.1602ZM96.3828 40C96.2578 39.75 96.1562 39.3047 96.0781 38.6641C95.0703 39.7109 93.8672 40.2344 92.4688 40.2344C91.2188 40.2344 90.1914 39.8828 89.3867 39.1797C88.5898 38.4688 88.1914 37.5703 88.1914 36.4844C88.1914 35.1641 88.6914 34.1406 89.6914 33.4141C90.6992 32.6797 92.1133 32.3125 93.9336 32.3125H96.043V31.3164C96.043 30.5586 95.8164 29.957 95.3633 29.5117C94.9102 29.0586 94.2422 28.832 93.3594 28.832C92.5859 28.832 91.9375 29.0273 91.4141 29.418C90.8906 29.8086 90.6289 30.2812 90.6289 30.8359H88.4492C88.4492 30.2031 88.6719 29.5938 89.1172 29.0078C89.5703 28.4141 90.1797 27.9453 90.9453 27.6016C91.7188 27.2578 92.5664 27.0859 93.4883 27.0859C94.9492 27.0859 96.0938 27.4531 96.9219 28.1875C97.75 28.9141 98.1797 29.918 98.2109 31.1992V37.0352C98.2109 38.1992 98.3594 39.125 98.6562 39.8125V40H96.3828ZM92.7852 38.3477C93.4648 38.3477 94.1094 38.1719 94.7188 37.8203C95.3281 37.4688 95.7695 37.0117 96.043 36.4492V33.8477H94.3438C91.6875 33.8477 90.3594 34.625 90.3594 36.1797C90.3594 36.8594 90.5859 37.3906 91.0391 37.7734C91.4922 38.1562 92.0742 38.3477 92.7852 38.3477ZM107.738 29.2656C107.41 29.2109 107.055 29.1836 106.672 29.1836C105.25 29.1836 104.285 29.7891 103.777 31V40H101.609V27.3203H103.719L103.754 28.7852C104.465 27.6523 105.473 27.0859 106.777 27.0859C107.199 27.0859 107.52 27.1406 107.738 27.25V29.2656ZM117.102 40C116.977 39.75 116.875 39.3047 116.797 38.6641C115.789 39.7109 114.586 40.2344 113.188 40.2344C111.938 40.2344 110.91 39.8828 110.105 39.1797C109.309 38.4688 108.91 37.5703 108.91 36.4844C108.91 35.1641 109.41 34.1406 110.41 33.4141C111.418 32.6797 112.832 32.3125 114.652 32.3125H116.762V31.3164C116.762 30.5586 116.535 29.957 116.082 29.5117C115.629 29.0586 114.961 28.832 114.078 28.832C113.305 28.832 112.656 29.0273 112.133 29.418C111.609 29.8086 111.348 30.2812 111.348 30.8359H109.168C109.168 30.2031 109.391 29.5938 109.836 29.0078C110.289 28.4141 110.898 27.9453 111.664 27.6016C112.438 27.2578 113.285 27.0859 114.207 27.0859C115.668 27.0859 116.812 27.4531 117.641 28.1875C118.469 28.9141 118.898 29.918 118.93 31.1992V37.0352C118.93 38.1992 119.078 39.125 119.375 39.8125V40H117.102ZM113.504 38.3477C114.184 38.3477 114.828 38.1719 115.438 37.8203C116.047 37.4688 116.488 37.0117 116.762 36.4492V33.8477H115.062C112.406 33.8477 111.078 34.625 111.078 36.1797C111.078 36.8594 111.305 37.3906 111.758 37.7734C112.211 38.1562 112.793 38.3477 113.504 38.3477ZM124.684 40H122.516V27.3203H124.684V40ZM122.34 23.957C122.34 23.6055 122.445 23.3086 122.656 23.0664C122.875 22.8242 123.195 22.7031 123.617 22.7031C124.039 22.7031 124.359 22.8242 124.578 23.0664C124.797 23.3086 124.906 23.6055 124.906 23.957C124.906 24.3086 124.797 24.6016 124.578 24.8359C124.359 25.0703 124.039 25.1875 123.617 25.1875C123.195 25.1875 122.875 25.0703 122.656 24.8359C122.445 24.6016 122.34 24.3086 122.34 23.957ZM130.215 27.3203L130.285 28.9141C131.254 27.6953 132.52 27.0859 134.082 27.0859C136.762 27.0859 138.113 28.5977 138.137 31.6211V40H135.969V31.6094C135.961 30.6953 135.75 30.0195 135.336 29.582C134.93 29.1445 134.293 28.9258 133.426 28.9258C132.723 28.9258 132.105 29.1133 131.574 29.4883C131.043 29.8633 130.629 30.3555 130.332 30.9648V40H128.164V27.3203H130.215ZM142.473 40V28.9961H140.469V27.3203H142.473V26.0195C142.473 24.6602 142.836 23.6094 143.562 22.8672C144.289 22.125 145.316 21.7539 146.645 21.7539C147.145 21.7539 147.641 21.8203 148.133 21.9531L148.016 23.7109C147.648 23.6406 147.258 23.6055 146.844 23.6055C146.141 23.6055 145.598 23.8125 145.215 24.2266C144.832 24.6328 144.641 25.2188 144.641 25.9844V27.3203H147.348V28.9961H144.641V40H142.473ZM149.176 33.543C149.176 32.3008 149.418 31.1836 149.902 30.1914C150.395 29.1992 151.074 28.4336 151.941 27.8945C152.816 27.3555 153.812 27.0859 154.93 27.0859C156.656 27.0859 158.051 27.6836 159.113 28.8789C160.184 30.0742 160.719 31.6641 160.719 33.6484V33.8008C160.719 35.0352 160.48 36.1445 160.004 37.1289C159.535 38.1055 158.859 38.8672 157.977 39.4141C157.102 39.9609 156.094 40.2344 154.953 40.2344C153.234 40.2344 151.84 39.6367 150.77 38.4414C149.707 37.2461 149.176 35.6641 149.176 33.6953V33.543ZM151.355 33.8008C151.355 35.207 151.68 36.3359 152.328 37.1875C152.984 38.0391 153.859 38.4648 154.953 38.4648C156.055 38.4648 156.93 38.0352 157.578 37.1758C158.227 36.3086 158.551 35.0977 158.551 33.543C158.551 32.1523 158.219 31.0273 157.555 30.168C156.898 29.3008 156.023 28.8672 154.93 28.8672C153.859 28.8672 152.996 29.293 152.34 30.1445C151.684 30.9961 151.355 32.2148 151.355 33.8008Z" fill="#FF7C7C"/>
<defs>
<linearGradient id="paint0_linear" x1="28.1311" y1="55.7408" x2="28.1311" y2="6.48149" gradientUnits="userSpaceOnUse">
<stop stop-color="#FEC8C8"/>
<stop offset="1" stop-opacity="0"/>
</linearGradient>
</defs>
</svg>
