<svg xmlns="http://www.w3.org/2000/svg" xmlns:xlink="http://www.w3.org/1999/xlink" viewBox="0 0 122.9 42" width="100%" height="100%" preserveAspectRatio="none"><defs><style>.cls-1{fill:none;}.cls-2{fill:#fff;}.cls-3{clip-path:url(#clip-path);}</style><clipPath id="clip-path"><path class="cls-1" d="M83.17,41.56H93.4V12.84H83.17ZM77.4,12.42c-9.45.3-14.25,4.55-14.25,13V41.56H73.47V28.38c0-5.05.66-7.23,6.65-7.42V12.57a11.3,11.3,0,0,0-2.1-.16h-.61M0,14.79c0,3.32,1.42,11.13,14.63,12,1.12.07,4.09.24,4.09,3,0,2.3-2.43,3.65-6.52,3.65A32,32,0,0,1,.72,31.27v9.17A53.14,53.14,0,0,0,14.36,42c11.28,0,16.33-6.36,16.33-12.66,0-7.14-5.68-11.78-15.14-12.39-1.29-.08-4.28-.28-4.28-3,0-3.24,4.31-3.24,5.93-3.24a35.49,35.49,0,0,1,9.15,1.62s1.46.52,2.71,1l.12,0V4.47l-.16,0a36.7,36.7,0,0,0-13.4-2.13C4.08,2.3,0,9,0,14.79M33.26,4.4V41.59H43.82V30.06c3.06,4.6,4.57,11.5,4.57,11.5H61c-1.25-5.2-6.71-14.79-6.71-14.79a46.31,46.31,0,0,0,7.41-13.94H49.65a35.9,35.9,0,0,1-5.83,10V2.3Zm64.47-.25V41.58H108V2.33Zm14.94,0V41.58H122.9V2.33ZM88.28,0a5,5,0,1,0,5,5h0A5,5,0,0,0,88.3,0Z"/></clipPath></defs><g id="Layer_2"><g id="Layer_1-2"><g id="Layer_2-2"><path class="cls-2" d="M83.17,41.56H93.4V12.84H83.17ZM77.4,12.42c-9.45.3-14.25,4.55-14.25,13V41.56H73.47V28.38c0-5.05.66-7.23,6.65-7.42V12.57a11.3,11.3,0,0,0-2.1-.16h-.61M0,14.79c0,3.32,1.42,11.13,14.63,12,1.12.07,4.09.24,4.09,3,0,2.3-2.43,3.65-6.52,3.65A32,32,0,0,1,.72,31.27v9.17A53.14,53.14,0,0,0,14.36,42c11.28,0,16.33-6.36,16.33-12.66,0-7.14-5.68-11.78-15.14-12.39-1.29-.08-4.28-.28-4.28-3,0-3.24,4.31-3.24,5.93-3.24a35.49,35.49,0,0,1,9.15,1.62s1.46.52,2.71,1l.12,0V4.47l-.16,0a36.7,36.7,0,0,0-13.4-2.13C4.08,2.3,0,9,0,14.79M33.26,4.4V41.59H43.82V30.06c3.06,4.6,4.57,11.5,4.57,11.5H61c-1.25-5.2-6.71-14.79-6.71-14.79a46.31,46.31,0,0,0,7.41-13.94H49.65a35.9,35.9,0,0,1-5.83,10V2.3Zm64.47-.25V41.58H108V2.33Zm14.94,0V41.58H122.9V2.33ZM88.28,0a5,5,0,1,0,5,5h0A5,5,0,0,0,88.3,0Z"/><g class="cls-3"><rect class="cls-2" width="122.9" height="41.98"/></g></g></g></g></svg>